M48
; DRILL file {KiCad 8.0.6-8.0.6-0~ubuntu24.04.1} date 2024-11-15T10:18:16-0500
; FORMAT={-:-/ absolute / inch / decimal}
; #@! TF.CreationDate,2024-11-15T10:18:16-05:00
; #@! TF.GenerationSoftware,Kicad,Pcbnew,8.0.6-8.0.6-0~ubuntu24.04.1
; #@! TF.FileFunction,Plated,1,2,PTH
FMAT,2
INCH
; #@! TA.AperFunction,Plated,PTH,ViaDrill
T1C0.0118
; #@! TA.AperFunction,Plated,PTH,ViaDrill
T2C0.0177
; #@! TA.AperFunction,Plated,PTH,ComponentDrill
T3C0.0197
; #@! TA.AperFunction,Plated,PTH,ViaDrill
T4C0.0236
; #@! TA.AperFunction,Plated,PTH,ComponentDrill
T5C0.1024
; #@! TA.AperFunction,Plated,PTH,ComponentDrill
T6C0.1378
%
G90
G05
T1
X4.7047Y-4.9409
X4.7244Y-4.3701
X4.7441Y-4.6063
X4.7441Y-4.685
X4.7638Y-4.4488
X4.7638Y-4.5276
X4.8031Y-4.2913
X4.8307Y-4.4724
X4.8386Y-4.8327
X4.874Y-4.3583
X4.8819Y-4.2126
X4.9055Y-4.5768
X4.9173Y-4.5276
X4.9213Y-4.7264
X4.9606Y-4.1732
X4.9646Y-4.5768
X4.9902Y-4.7126
X5.0Y-4.4488
X5.0Y-4.5276
X5.0236Y-4.5768
X5.0394Y-4.1732
X5.0787Y-4.5276
X5.0827Y-4.5768
X5.0925Y-4.2205
X5.0925Y-4.2854
X5.1417Y-4.5768
X5.1575Y-4.2126
X5.1575Y-4.4331
X5.1988Y-4.9469
X5.2008Y-4.5768
X5.2362Y-4.2126
X5.2362Y-4.4331
X5.2598Y-4.5768
X5.315Y-4.2126
X5.315Y-4.4094
X5.3189Y-4.5768
X5.3268Y-4.4764
X5.3878Y-4.9429
X5.3937Y-4.2126
X5.3937Y-4.2913
X5.3937Y-4.4094
X5.3937Y-4.4882
X5.4016Y-4.5669
X5.4134Y-4.7047
X5.4193Y-4.9311
X5.4528Y-4.7638
X5.4665Y-4.3976
X5.4724Y-4.2126
X5.4724Y-4.4882
X5.4724Y-4.5669
X5.4783Y-4.8465
X5.5079Y-4.8169
X5.5453Y-4.7795
X5.5512Y-4.2126
X5.5512Y-4.4094
X5.5512Y-4.4882
X5.5512Y-4.9055
X5.5551Y-4.7244
X5.5748Y-4.5768
X5.5787Y-4.878
X5.5906Y-4.5276
X5.6122Y-4.8465
X5.6299Y-4.252
X5.6339Y-4.5768
X5.6535Y-4.7244
X5.6535Y-4.8031
X5.6693Y-4.3307
X5.7087Y-4.7008
X5.7087Y-4.7638
X5.7087Y-4.8425
X5.748Y-4.4882
X5.7874Y-4.5669
X5.7874Y-4.685
X5.7874Y-4.7638
X5.7874Y-4.8425
X5.7874Y-4.9213
T2
X4.7402Y-4.748
X4.8386Y-4.7283
X5.2933Y-4.939
X5.4764Y-4.9449
X5.5197Y-4.9449
T3
X5.1663Y-3.3169
X5.1966Y-3.2439
X5.1966Y-3.39
X5.2697Y-3.2136
X5.2697Y-3.4203
X5.3428Y-3.2439
X5.3428Y-3.39
X5.373Y-3.3169
T4
X4.7795Y-4.9114
X4.9803Y-4.937
X5.2461Y-4.937
X5.3406Y-4.937
X5.6417Y-4.9311
X5.7343Y-4.9291
T5
X4.7933Y-3.2264
X5.7461Y-3.2264
T6
X5.2697Y-3.3169
M30
