%TF.GenerationSoftware,KiCad,Pcbnew,9.0.0*%
%TF.CreationDate,2025-03-01T15:32:50-05:00*%
%TF.ProjectId,mPCIE-to-M_2_E-Key,6d504349-452d-4746-9f2d-4d5f325f452d,rev?*%
%TF.SameCoordinates,Original*%
%TF.FileFunction,AssemblyDrawing,Top*%
%FSLAX46Y46*%
G04 Gerber Fmt 4.6, Leading zero omitted, Abs format (unit mm)*
G04 Created by KiCad (PCBNEW 9.0.0) date 2025-03-01 15:32:50*
%MOMM*%
%LPD*%
G01*
G04 APERTURE LIST*
%ADD10C,0.150000*%
%ADD11C,0.127000*%
%ADD12C,0.200000*%
%ADD13C,0.050000*%
%ADD14C,0.100000*%
%ADD15C,0.120000*%
G04 APERTURE END LIST*
D10*
X133088095Y-84704819D02*
X133088095Y-83704819D01*
X133088095Y-84181009D02*
X133659523Y-84181009D01*
X133659523Y-84704819D02*
X133659523Y-83704819D01*
X134040476Y-83704819D02*
X134659523Y-83704819D01*
X134659523Y-83704819D02*
X134326190Y-84085771D01*
X134326190Y-84085771D02*
X134469047Y-84085771D01*
X134469047Y-84085771D02*
X134564285Y-84133390D01*
X134564285Y-84133390D02*
X134611904Y-84181009D01*
X134611904Y-84181009D02*
X134659523Y-84276247D01*
X134659523Y-84276247D02*
X134659523Y-84514342D01*
X134659523Y-84514342D02*
X134611904Y-84609580D01*
X134611904Y-84609580D02*
X134564285Y-84657200D01*
X134564285Y-84657200D02*
X134469047Y-84704819D01*
X134469047Y-84704819D02*
X134183333Y-84704819D01*
X134183333Y-84704819D02*
X134088095Y-84657200D01*
X134088095Y-84657200D02*
X134040476Y-84609580D01*
X132863095Y-84204819D02*
X134884523Y-84204819D01*
X133088095Y-72704819D02*
X133088095Y-71704819D01*
X133088095Y-72181009D02*
X133659523Y-72181009D01*
X133659523Y-72704819D02*
X133659523Y-71704819D01*
X134564285Y-72038152D02*
X134564285Y-72704819D01*
X134326190Y-71657200D02*
X134088095Y-72371485D01*
X134088095Y-72371485D02*
X134707142Y-72371485D01*
X132863095Y-72178249D02*
X134926433Y-72178249D01*
D11*
%TO.C,J2*%
X122850000Y-110150000D02*
X144850000Y-110150000D01*
X122850000Y-118200000D02*
X122850000Y-110150000D01*
X144850000Y-110150000D02*
X144850000Y-118200000D01*
X144850000Y-118200000D02*
X122850000Y-118200000D01*
D12*
X143200000Y-119250000D02*
G75*
G02*
X143000000Y-119250000I-100000J0D01*
G01*
X143000000Y-119250000D02*
G75*
G02*
X143200000Y-119250000I100000J0D01*
G01*
D10*
%TO.C,R9*%
X135150000Y-103750000D02*
X136050000Y-103750000D01*
X135150000Y-105450000D02*
X135150000Y-103750000D01*
D13*
X135600000Y-104950000D02*
X135600000Y-104250000D01*
X135950000Y-104600000D02*
X135250000Y-104600000D01*
D10*
X136050000Y-103750000D02*
X136050000Y-105450000D01*
X136050000Y-105450000D02*
X135150000Y-105450000D01*
D13*
X135850000Y-104600000D02*
G75*
G02*
X135350000Y-104600000I-250000J0D01*
G01*
X135350000Y-104600000D02*
G75*
G02*
X135850000Y-104600000I250000J0D01*
G01*
D10*
%TO.C,R7*%
X129750000Y-103750000D02*
X130650000Y-103750000D01*
X129750000Y-105450000D02*
X129750000Y-103750000D01*
D13*
X129850000Y-104600000D02*
X130550000Y-104600000D01*
X130200000Y-104250000D02*
X130200000Y-104950000D01*
D10*
X130650000Y-103750000D02*
X130650000Y-105450000D01*
X130650000Y-105450000D02*
X129750000Y-105450000D01*
D13*
X130450000Y-104600000D02*
G75*
G02*
X129950000Y-104600000I-250000J0D01*
G01*
X129950000Y-104600000D02*
G75*
G02*
X130450000Y-104600000I250000J0D01*
G01*
D10*
%TO.C,R8*%
X137050000Y-103750000D02*
X137950000Y-103750000D01*
X137050000Y-105450000D02*
X137050000Y-103750000D01*
D13*
X137500000Y-104950000D02*
X137500000Y-104250000D01*
X137850000Y-104600000D02*
X137150000Y-104600000D01*
D10*
X137950000Y-103750000D02*
X137950000Y-105450000D01*
X137950000Y-105450000D02*
X137050000Y-105450000D01*
D13*
X137750000Y-104600000D02*
G75*
G02*
X137250000Y-104600000I-250000J0D01*
G01*
X137250000Y-104600000D02*
G75*
G02*
X137750000Y-104600000I250000J0D01*
G01*
D10*
%TO.C,R3*%
X128650000Y-119350000D02*
X130350000Y-119350000D01*
X128650000Y-120250000D02*
X128650000Y-119350000D01*
D13*
X129150000Y-119800000D02*
X129850000Y-119800000D01*
X129500000Y-120150000D02*
X129500000Y-119450000D01*
D10*
X130350000Y-119350000D02*
X130350000Y-120250000D01*
X130350000Y-120250000D02*
X128650000Y-120250000D01*
D13*
X129750000Y-119800000D02*
G75*
G02*
X129250000Y-119800000I-250000J0D01*
G01*
X129250000Y-119800000D02*
G75*
G02*
X129750000Y-119800000I250000J0D01*
G01*
%TO.C,J3*%
D14*
X119930000Y-108720000D02*
X122470000Y-108720000D01*
X122470000Y-93480000D01*
X119930000Y-93480000D01*
X119930000Y-108720000D01*
D15*
%TO.C,Q3*%
X138680000Y-103900000D02*
X141720000Y-103900000D01*
X138680000Y-104833000D02*
X138680000Y-103900000D01*
X139147000Y-105300000D02*
X138680000Y-104833000D01*
D13*
X139850000Y-104600000D02*
X140550000Y-104600000D01*
X140200000Y-104250000D02*
X140200000Y-104950000D01*
D15*
X141720000Y-103900000D02*
X141720000Y-105300000D01*
X141720000Y-105300000D02*
X139147000Y-105300000D01*
D13*
X140450000Y-104600000D02*
G75*
G02*
X139950000Y-104600000I-250000J0D01*
G01*
X139950000Y-104600000D02*
G75*
G02*
X140450000Y-104600000I250000J0D01*
G01*
D15*
%TO.C,Q1*%
X127980000Y-121650000D02*
X130553000Y-121650000D01*
X127980000Y-123050000D02*
X127980000Y-121650000D01*
D13*
X129500000Y-122700000D02*
X129500000Y-122000000D01*
X129850000Y-122350000D02*
X129150000Y-122350000D01*
D15*
X130553000Y-121650000D02*
X131020000Y-122117000D01*
X131020000Y-122117000D02*
X131020000Y-123050000D01*
X131020000Y-123050000D02*
X127980000Y-123050000D01*
D13*
X129750000Y-122350000D02*
G75*
G02*
X129250000Y-122350000I-250000J0D01*
G01*
X129250000Y-122350000D02*
G75*
G02*
X129750000Y-122350000I250000J0D01*
G01*
D15*
%TO.C,Q2*%
X131580000Y-121650000D02*
X134153000Y-121650000D01*
X131580000Y-123050000D02*
X131580000Y-121650000D01*
D13*
X133100000Y-122700000D02*
X133100000Y-122000000D01*
X133450000Y-122350000D02*
X132750000Y-122350000D01*
D15*
X134153000Y-121650000D02*
X134620000Y-122117000D01*
X134620000Y-122117000D02*
X134620000Y-123050000D01*
X134620000Y-123050000D02*
X131580000Y-123050000D01*
D13*
X133350000Y-122350000D02*
G75*
G02*
X132850000Y-122350000I-250000J0D01*
G01*
X132850000Y-122350000D02*
G75*
G02*
X133350000Y-122350000I250000J0D01*
G01*
D10*
%TO.C,R1*%
X136800000Y-122550000D02*
X137700000Y-122550000D01*
X136800000Y-124250000D02*
X136800000Y-122550000D01*
D13*
X136900000Y-123400000D02*
X137600000Y-123400000D01*
X137250000Y-123050000D02*
X137250000Y-123750000D01*
D10*
X137700000Y-122550000D02*
X137700000Y-124250000D01*
X137700000Y-124250000D02*
X136800000Y-124250000D01*
D13*
X137500000Y-123400000D02*
G75*
G02*
X137000000Y-123400000I-250000J0D01*
G01*
X137000000Y-123400000D02*
G75*
G02*
X137500000Y-123400000I250000J0D01*
G01*
D10*
%TO.C,C2*%
X126025000Y-120600000D02*
X127475000Y-120600000D01*
X126025000Y-122800000D02*
X126025000Y-120600000D01*
D13*
X126400000Y-121700000D02*
X127100000Y-121700000D01*
X126750000Y-121350000D02*
X126750000Y-122050000D01*
D10*
X127475000Y-120600000D02*
X127475000Y-122800000D01*
X127475000Y-122800000D02*
X126025000Y-122800000D01*
D13*
X127000000Y-121700000D02*
G75*
G02*
X126500000Y-121700000I-250000J0D01*
G01*
X126500000Y-121700000D02*
G75*
G02*
X127000000Y-121700000I250000J0D01*
G01*
D10*
%TO.C,R4*%
X135650000Y-120450000D02*
X137350000Y-120450000D01*
X135650000Y-121350000D02*
X135650000Y-120450000D01*
D13*
X136500000Y-120550000D02*
X136500000Y-121250000D01*
X136850000Y-120900000D02*
X136150000Y-120900000D01*
D10*
X137350000Y-120450000D02*
X137350000Y-121350000D01*
X137350000Y-121350000D02*
X135650000Y-121350000D01*
D13*
X136750000Y-120900000D02*
G75*
G02*
X136250000Y-120900000I-250000J0D01*
G01*
X136250000Y-120900000D02*
G75*
G02*
X136750000Y-120900000I250000J0D01*
G01*
D15*
%TO.C,U1*%
X121825000Y-122050000D02*
X123508000Y-122050000D01*
X121825000Y-123450000D02*
X121825000Y-122050000D01*
D13*
X122900000Y-123100000D02*
X122900000Y-122400000D01*
X123250000Y-122750000D02*
X122550000Y-122750000D01*
D15*
X123508000Y-122050000D02*
X123975000Y-122517000D01*
X123975000Y-122517000D02*
X123975000Y-123450000D01*
X123975000Y-123450000D02*
X121825000Y-123450000D01*
D13*
X123150000Y-122750000D02*
G75*
G02*
X122650000Y-122750000I-250000J0D01*
G01*
X122650000Y-122750000D02*
G75*
G02*
X123150000Y-122750000I250000J0D01*
G01*
D10*
%TO.C,R6*%
X142450000Y-103750000D02*
X143350000Y-103750000D01*
X142450000Y-105450000D02*
X142450000Y-103750000D01*
D13*
X142550000Y-104600000D02*
X143250000Y-104600000D01*
X142900000Y-104250000D02*
X142900000Y-104950000D01*
D10*
X143350000Y-103750000D02*
X143350000Y-105450000D01*
X143350000Y-105450000D02*
X142450000Y-105450000D01*
D13*
X143150000Y-104600000D02*
G75*
G02*
X142650000Y-104600000I-250000J0D01*
G01*
X142650000Y-104600000D02*
G75*
G02*
X143150000Y-104600000I250000J0D01*
G01*
D15*
%TO.C,Q4*%
X131380000Y-103900000D02*
X134420000Y-103900000D01*
X131380000Y-104833000D02*
X131380000Y-103900000D01*
X131847000Y-105300000D02*
X131380000Y-104833000D01*
D13*
X132550000Y-104600000D02*
X133250000Y-104600000D01*
X132900000Y-104250000D02*
X132900000Y-104950000D01*
D15*
X134420000Y-103900000D02*
X134420000Y-105300000D01*
X134420000Y-105300000D02*
X131847000Y-105300000D01*
D13*
X133150000Y-104600000D02*
G75*
G02*
X132650000Y-104600000I-250000J0D01*
G01*
X132650000Y-104600000D02*
G75*
G02*
X133150000Y-104600000I250000J0D01*
G01*
D10*
%TO.C,R5*%
X124550000Y-121000000D02*
X125450000Y-121000000D01*
X124550000Y-122700000D02*
X124550000Y-121000000D01*
D13*
X124650000Y-121850000D02*
X125350000Y-121850000D01*
X125000000Y-121500000D02*
X125000000Y-122200000D01*
D10*
X125450000Y-121000000D02*
X125450000Y-122700000D01*
X125450000Y-122700000D02*
X124550000Y-122700000D01*
D13*
X125250000Y-121850000D02*
G75*
G02*
X124750000Y-121850000I-250000J0D01*
G01*
X124750000Y-121850000D02*
G75*
G02*
X125250000Y-121850000I250000J0D01*
G01*
D10*
%TO.C,R2*%
X135300000Y-122550000D02*
X136200000Y-122550000D01*
X135300000Y-124250000D02*
X135300000Y-122550000D01*
D13*
X135400000Y-123400000D02*
X136100000Y-123400000D01*
X135750000Y-123050000D02*
X135750000Y-123750000D01*
D10*
X136200000Y-122550000D02*
X136200000Y-124250000D01*
X136200000Y-124250000D02*
X135300000Y-124250000D01*
D13*
X136000000Y-123400000D02*
G75*
G02*
X135500000Y-123400000I-250000J0D01*
G01*
X135500000Y-123400000D02*
G75*
G02*
X136000000Y-123400000I250000J0D01*
G01*
D10*
%TO.C,C1*%
X119925000Y-121875000D02*
X120875000Y-121875000D01*
X119925000Y-123625000D02*
X119925000Y-121875000D01*
D13*
X120050000Y-122750000D02*
X120750000Y-122750000D01*
X120400000Y-122400000D02*
X120400000Y-123100000D01*
D10*
X120875000Y-121875000D02*
X120875000Y-123625000D01*
X120875000Y-123625000D02*
X119925000Y-123625000D01*
D13*
X120650000Y-122750000D02*
G75*
G02*
X120150000Y-122750000I-250000J0D01*
G01*
X120150000Y-122750000D02*
G75*
G02*
X120650000Y-122750000I250000J0D01*
G01*
%TD*%
D14*
X130325000Y-80725000D02*
X137375000Y-87775000D01*
X130325000Y-87775000D02*
X137375000Y-80725000D01*
X120000000Y-80200000D02*
X123500000Y-83700000D01*
X120000000Y-83700000D02*
X123500000Y-80200000D01*
X130325000Y-68725000D02*
X137375000Y-75775000D01*
X130325000Y-75775000D02*
X137375000Y-68725000D01*
X144200000Y-80200000D02*
X147700000Y-83700000D01*
X144200000Y-83700000D02*
X147700000Y-80200000D01*
M02*
