M48
; DRILL file {KiCad 9.0.0} date 2025-03-01T15:34:36-0500
; FORMAT={-:-/ absolute / metric / decimal}
; #@! TF.CreationDate,2025-03-01T15:34:36-05:00
; #@! TF.GenerationSoftware,Kicad,Pcbnew,9.0.0
; #@! TF.FileFunction,Plated,1,2,PTH
FMAT,2
METRIC
; #@! TA.AperFunction,Plated,PTH,ViaDrill
T1C0.300
; #@! TA.AperFunction,Plated,PTH,ViaDrill
T2C0.450
; #@! TA.AperFunction,Plated,PTH,ViaDrill
T3C0.600
; #@! TA.AperFunction,Plated,PTH,ComponentDrill
T4C1.100
; #@! TA.AperFunction,Plated,PTH,ComponentDrill
T5C2.600
; #@! TA.AperFunction,Plated,PTH,ComponentDrill
T6C4.200
%
G90
G05
T1
X119.5Y-125.5
X120.0Y-111.0
X120.5Y-117.0
X120.5Y-119.0
X121.0Y-113.0
X121.0Y-115.0
X122.0Y-109.0
X122.7Y-113.6
X122.9Y-122.75
X123.0Y-98.5
X123.4Y-100.65
X123.8Y-110.7
X124.0Y-107.0
X124.05Y-104.5
X124.6Y-116.25
X124.9Y-115.0
X125.0Y-120.05
X125.5Y-98.5
X125.65Y-100.65
X126.0Y-104.5
X126.0Y-106.0
X126.1Y-116.25
X126.75Y-119.7
X127.0Y-101.5
X127.0Y-113.0
X127.0Y-115.0
X127.6Y-116.25
X127.85Y-102.65
X128.0Y-100.5
X128.0Y-104.5
X128.0Y-106.0
X129.0Y-101.5
X129.0Y-104.05
X129.0Y-115.0
X129.1Y-116.25
X129.35Y-107.2
X129.35Y-108.85
X130.6Y-116.25
X131.0Y-107.0
X131.0Y-112.6
X131.65Y-119.8
X131.9Y-104.55
X131.95Y-106.75
X132.05Y-125.65
X132.1Y-116.25
X133.0Y-107.0
X133.0Y-112.6
X133.6Y-116.25
X134.0Y-107.0
X134.05Y-104.65
X134.65Y-122.95
X135.0Y-112.0
X135.1Y-116.25
X135.3Y-113.7
X135.35Y-107.25
X135.35Y-108.85
X135.35Y-112.75
X135.4Y-106.35
X136.15Y-102.75
X136.15Y-109.75
X136.5Y-115.0
X136.85Y-125.55
X136.95Y-102.75
X136.95Y-109.75
X137.2Y-116.0
X137.5Y-119.5
X137.65Y-125.25
X137.85Y-107.25
X137.85Y-108.85
X138.0Y-112.5
X138.25Y-122.1
X138.5Y-119.5
X138.5Y-121.0
X138.85Y-111.7
X139.0Y-114.0
X139.15Y-123.1
X139.3Y-116.4
X139.3Y-119.05
X139.9Y-122.35
X140.2Y-104.65
X140.35Y-116.4
X140.35Y-119.05
X140.85Y-121.4
X141.0Y-107.0
X141.0Y-112.0
X141.0Y-114.0
X141.0Y-124.6
X141.1Y-120.0
X141.6Y-116.25
X141.7Y-123.9
X142.0Y-115.0
X142.55Y-123.1
X143.0Y-108.0
X143.1Y-116.25
X143.6Y-120.0
X143.6Y-122.0
X144.0Y-110.0
X145.0Y-119.4
X145.0Y-121.0
X145.0Y-123.0
X146.0Y-114.0
X147.0Y-116.0
X147.0Y-119.0
X147.0Y-121.0
X147.0Y-123.0
X147.0Y-125.0
T2
X120.4Y-120.6
X122.9Y-120.1
X134.45Y-125.45
X139.1Y-125.6
X140.2Y-125.6
T3
X121.4Y-124.75
X126.5Y-125.4
X133.25Y-125.4
X135.65Y-125.4
X143.3Y-125.25
X145.65Y-125.2
T4
X121.2Y-94.75
X121.2Y-97.29
X121.2Y-99.83
X121.2Y-102.37
X121.2Y-104.91
X121.2Y-107.45
T5
X121.75Y-81.95
X145.95Y-81.95
T6
X133.85Y-72.25
X133.85Y-84.25
M30
