%TF.GenerationSoftware,KiCad,Pcbnew,9.0.0*%
%TF.CreationDate,2025-03-01T15:32:50-05:00*%
%TF.ProjectId,mPCIE-to-M_2_E-Key,6d504349-452d-4746-9f2d-4d5f325f452d,rev?*%
%TF.SameCoordinates,Original*%
%TF.FileFunction,Profile,NP*%
%FSLAX46Y46*%
G04 Gerber Fmt 4.6, Leading zero omitted, Abs format (unit mm)*
G04 Created by KiCad (PCBNEW 9.0.0) date 2025-03-01 15:32:50*
%MOMM*%
%LPD*%
G01*
G04 APERTURE LIST*
%TA.AperFunction,Profile*%
%ADD10C,0.100000*%
%TD*%
G04 APERTURE END LIST*
D10*
X148850000Y-126000000D02*
X148850000Y-79850000D01*
X138100000Y-68800000D02*
X138100000Y-78250001D01*
X138900000Y-79050000D02*
X148050000Y-79050000D01*
X129600000Y-78250000D02*
G75*
G02*
X128800000Y-79050000I-800000J0D01*
G01*
X130400000Y-68000000D02*
X137300000Y-68000000D01*
X129600000Y-68800000D02*
G75*
G02*
X130400000Y-68000000I800000J0D01*
G01*
X137300000Y-68000000D02*
G75*
G02*
X138100000Y-68800000I0J-800000D01*
G01*
X129600000Y-68800000D02*
X129600000Y-78250001D01*
X118850000Y-126000000D02*
X118850000Y-79850000D01*
X148050000Y-79050000D02*
G75*
G02*
X148850000Y-79850000I0J-800000D01*
G01*
X138900000Y-79050000D02*
G75*
G02*
X138100000Y-78250000I0J800000D01*
G01*
X118850000Y-79850000D02*
G75*
G02*
X119650000Y-79050000I800000J0D01*
G01*
X119650000Y-79050000D02*
X128800000Y-79050000D01*
%TO.C,J1*%
X118850000Y-126800000D02*
X118850000Y-126000000D01*
X118850000Y-126800000D02*
X120200000Y-126800000D01*
X121000000Y-127600000D02*
X121000000Y-130000000D01*
X129250000Y-130000000D02*
X121000000Y-130000000D01*
X129250000Y-130000000D02*
X129250000Y-126750000D01*
X130750000Y-126750000D02*
X130750000Y-130000000D01*
X130750000Y-130000000D02*
X146700000Y-130000000D01*
X146700000Y-127600000D02*
X146700000Y-130000000D01*
X148850000Y-126800000D02*
X147500000Y-126800000D01*
X148850000Y-126800000D02*
X148850000Y-126000000D01*
X120200000Y-126800000D02*
G75*
G02*
X121000000Y-127600000I-1J-800001D01*
G01*
X129250000Y-126750000D02*
G75*
G02*
X130750000Y-126750000I750000J0D01*
G01*
X146700000Y-127600000D02*
G75*
G02*
X147500000Y-126800000I800000J0D01*
G01*
%TD*%
M02*
