%TF.GenerationSoftware,KiCad,Pcbnew,9.0.0*%
%TF.CreationDate,2025-03-01T15:32:50-05:00*%
%TF.ProjectId,mPCIE-to-M_2_E-Key,6d504349-452d-4746-9f2d-4d5f325f452d,rev?*%
%TF.SameCoordinates,Original*%
%TF.FileFunction,Copper,L2,Bot*%
%TF.FilePolarity,Positive*%
%FSLAX46Y46*%
G04 Gerber Fmt 4.6, Leading zero omitted, Abs format (unit mm)*
G04 Created by KiCad (PCBNEW 9.0.0) date 2025-03-01 15:32:50*
%MOMM*%
%LPD*%
G01*
G04 APERTURE LIST*
%TA.AperFunction,ComponentPad*%
%ADD10R,1.700000X1.700000*%
%TD*%
%TA.AperFunction,ComponentPad*%
%ADD11C,1.700000*%
%TD*%
%TA.AperFunction,ComponentPad*%
%ADD12C,6.500000*%
%TD*%
%TA.AperFunction,ComponentPad*%
%ADD13C,3.500000*%
%TD*%
%TA.AperFunction,SMDPad,CuDef*%
%ADD14R,0.600000X2.300000*%
%TD*%
%TA.AperFunction,ViaPad*%
%ADD15C,0.750000*%
%TD*%
%TA.AperFunction,ViaPad*%
%ADD16C,1.200000*%
%TD*%
%TA.AperFunction,ViaPad*%
%ADD17C,0.600000*%
%TD*%
%TA.AperFunction,Conductor*%
%ADD18C,0.600000*%
%TD*%
%TA.AperFunction,Conductor*%
%ADD19C,0.400000*%
%TD*%
%TA.AperFunction,Conductor*%
%ADD20C,0.300000*%
%TD*%
%TA.AperFunction,Conductor*%
%ADD21C,0.200000*%
%TD*%
%TA.AperFunction,Conductor*%
%ADD22C,0.447000*%
%TD*%
G04 APERTURE END LIST*
D10*
%TO.P,J3,1,Pin_1*%
%TO.N,+3V3*%
X121200000Y-107450000D03*
D11*
%TO.P,J3,2,Pin_2*%
%TO.N,/SDA_3V3*%
X121200000Y-104910000D03*
%TO.P,J3,3,Pin_3*%
%TO.N,/SCL_3V3*%
X121200000Y-102370000D03*
%TO.P,J3,4,Pin_4*%
%TO.N,/TXD_3V3*%
X121200000Y-99830000D03*
%TO.P,J3,5,Pin_5*%
%TO.N,/RXD_3V3*%
X121200000Y-97290000D03*
%TO.P,J3,6,Pin_6*%
%TO.N,GND*%
X121200000Y-94750000D03*
%TD*%
D12*
%TO.P,H3,1,1*%
%TO.N,GND*%
X133850000Y-84250000D03*
%TD*%
D13*
%TO.P,H2,1,1*%
%TO.N,GND*%
X121750000Y-81950000D03*
%TD*%
D12*
%TO.P,H4,1,1*%
%TO.N,GND*%
X133850000Y-72250000D03*
%TD*%
D14*
%TO.P,J1,2,+3V3AUX*%
%TO.N,+3V3*%
X122450000Y-128600000D03*
%TO.P,J1,4,GND*%
%TO.N,GND*%
X123250000Y-128600000D03*
%TO.P,J1,6,+1V5*%
%TO.N,unconnected-(J1-+1V5-Pad6)*%
X124050000Y-128600000D03*
%TO.P,J1,8,UIM_PWR*%
%TO.N,unconnected-(J1-UIM_PWR-Pad8)*%
X124850000Y-128600000D03*
%TO.P,J1,10,UIM_DATA*%
%TO.N,unconnected-(J1-UIM_DATA-Pad10)*%
X125650000Y-128600000D03*
%TO.P,J1,12,UIM_CLK*%
%TO.N,unconnected-(J1-UIM_CLK-Pad12)*%
X126450000Y-128600000D03*
%TO.P,J1,14,~{UIM_RESET}*%
%TO.N,unconnected-(J1-~{UIM_RESET}-Pad14)*%
X127250000Y-128600000D03*
%TO.P,J1,16,UIM_VPP*%
%TO.N,unconnected-(J1-UIM_VPP-Pad16)*%
X128050000Y-128600000D03*
%TO.P,J1,18,GND*%
%TO.N,GND*%
X132050000Y-128600000D03*
%TO.P,J1,20,~{W_DISABLE}*%
%TO.N,/W_DISABLE*%
X132850000Y-128600000D03*
%TO.P,J1,22,~{PERST}*%
%TO.N,unconnected-(J1-~{PERST}-Pad22)*%
X133700000Y-128600000D03*
%TO.P,J1,24,+3V3AUX*%
%TO.N,+3V3*%
X134450000Y-128600000D03*
%TO.P,J1,26,GND*%
%TO.N,GND*%
X135250000Y-128600000D03*
%TO.P,J1,28,+1V5*%
%TO.N,unconnected-(J1-+1V5-Pad28)*%
X136050000Y-128600000D03*
%TO.P,J1,30,SMB_CLK*%
%TO.N,/SCL_3V3*%
X136850000Y-128600000D03*
%TO.P,J1,32,SMB_DATA*%
%TO.N,/SDA_3V3*%
X137650000Y-128600000D03*
%TO.P,J1,34,GND*%
%TO.N,GND*%
X138450000Y-128600000D03*
%TO.P,J1,36,USB_D-*%
%TO.N,/D_N*%
X139250000Y-128600000D03*
%TO.P,J1,38,USB_D+*%
%TO.N,/D_P*%
X140050000Y-128600000D03*
%TO.P,J1,40,GND*%
%TO.N,GND*%
X140850000Y-128600000D03*
%TO.P,J1,42,~{LED_WWAN}*%
%TO.N,unconnected-(J1-~{LED_WWAN}-Pad42)*%
X141650000Y-128600000D03*
%TO.P,J1,44,~{LED_WLAN}*%
%TO.N,unconnected-(J1-~{LED_WLAN}-Pad44)*%
X142450000Y-128600000D03*
%TO.P,J1,46,~{LED_WPAN}*%
%TO.N,unconnected-(J1-~{LED_WPAN}-Pad46)*%
X143250000Y-128600000D03*
%TO.P,J1,48,+1V5*%
%TO.N,unconnected-(J1-+1V5-Pad48)*%
X144050000Y-128600000D03*
%TO.P,J1,50,GND*%
%TO.N,GND*%
X144850000Y-128600000D03*
%TO.P,J1,52,+3V3AUX*%
%TO.N,+3V3*%
X145650000Y-128600000D03*
%TD*%
D13*
%TO.P,H1,1,1*%
%TO.N,GND*%
X145950000Y-81950000D03*
%TD*%
D15*
%TO.N,+3V3*%
X134450000Y-125450000D03*
D16*
X145650000Y-125200000D03*
X121400000Y-124750000D03*
D17*
%TO.N,GND*%
X123400000Y-100650000D03*
X147000000Y-123000000D03*
X137500000Y-119500000D03*
X143000000Y-108000000D03*
X120000000Y-111000000D03*
X125500000Y-98500000D03*
X126000000Y-104500000D03*
X135100000Y-116250000D03*
X121000000Y-113000000D03*
X142550000Y-123100000D03*
X126100000Y-116250000D03*
X123000000Y-98500000D03*
X131900000Y-104550000D03*
X124900000Y-115000000D03*
X141000000Y-112000000D03*
X138000000Y-112500000D03*
X133000000Y-107000000D03*
X137200000Y-116000000D03*
X135300000Y-113700000D03*
X141000000Y-114000000D03*
X135000000Y-112000000D03*
X139150000Y-123100000D03*
X119500000Y-125500000D03*
X128000000Y-106000000D03*
D15*
X122900000Y-120100000D03*
D17*
X134000000Y-107000000D03*
X141000000Y-107000000D03*
X147000000Y-116000000D03*
X147000000Y-119000000D03*
X130600000Y-116250000D03*
X120500000Y-117000000D03*
D16*
X126500000Y-125400000D03*
D17*
X142000000Y-115000000D03*
X140200000Y-104650000D03*
X147000000Y-121000000D03*
X121000000Y-115000000D03*
X124050000Y-104500000D03*
X143600000Y-120000000D03*
X131000000Y-107000000D03*
X138500000Y-121000000D03*
X141000000Y-124600000D03*
X134050000Y-104650000D03*
X129100000Y-116250000D03*
D16*
X135650000Y-125400000D03*
D17*
X141700000Y-123900000D03*
X122900000Y-122750000D03*
X131000000Y-112600000D03*
X135350000Y-112750000D03*
X129000000Y-115000000D03*
X145000000Y-123000000D03*
X125000000Y-120050000D03*
X126750000Y-119700000D03*
X138850000Y-111700000D03*
D15*
X120400000Y-120600000D03*
D17*
X145000000Y-119400000D03*
X122000000Y-109000000D03*
X123800000Y-110700000D03*
X127000000Y-113000000D03*
X124600000Y-116250000D03*
X138500000Y-119500000D03*
X133600000Y-116250000D03*
X129000000Y-104050000D03*
X128000000Y-104500000D03*
D16*
X143300000Y-125250000D03*
D17*
X145000000Y-121000000D03*
X139900000Y-122350000D03*
X135400000Y-106350000D03*
X132100000Y-116250000D03*
X141100000Y-120000000D03*
X140850000Y-121400000D03*
X120500000Y-119000000D03*
X146000000Y-114000000D03*
X124000000Y-107000000D03*
X133000000Y-112600000D03*
X127600000Y-116250000D03*
X143100000Y-116250000D03*
X143600000Y-122000000D03*
X126000000Y-106000000D03*
X125650000Y-100650000D03*
X127000000Y-115000000D03*
X122700000Y-113600000D03*
X144000000Y-110000000D03*
X147000000Y-125000000D03*
X136500000Y-115000000D03*
X141600000Y-116250000D03*
X139000000Y-114000000D03*
D16*
X133250000Y-125400000D03*
D17*
%TO.N,+1V8*%
X131650000Y-119800000D03*
X131950000Y-106750000D03*
%TO.N,/TXD_1V8*%
X135350000Y-108850000D03*
X135350000Y-107250000D03*
D15*
%TO.N,/D_P*%
X140200000Y-125600000D03*
D17*
%TO.N,/RXD_1V8*%
X137850000Y-108850000D03*
X137850000Y-107250000D03*
%TO.N,/W_DISABLE*%
X129350000Y-107200000D03*
X132050000Y-125650000D03*
X129350000Y-108850000D03*
D15*
%TO.N,/D_N*%
X139100000Y-125600000D03*
D17*
%TO.N,/SDA_3V3*%
X137650000Y-125250000D03*
X138250000Y-122100000D03*
X129000000Y-101500000D03*
X139300000Y-116400000D03*
X139300000Y-119050000D03*
X136150000Y-109750000D03*
X134650000Y-122950000D03*
X136150000Y-102750000D03*
X127850000Y-102650000D03*
%TO.N,/SCL_3V3*%
X128000000Y-100500000D03*
X136950000Y-102750000D03*
X140350000Y-119050000D03*
X140350000Y-116400000D03*
X136849997Y-125549997D03*
X136950000Y-109750000D03*
X127000000Y-101500000D03*
%TD*%
D18*
%TO.N,+3V3*%
X121400000Y-124750000D02*
X122450000Y-125800000D01*
X122450000Y-125800000D02*
X122450000Y-128600000D01*
X145650000Y-128600000D02*
X145650000Y-125200000D01*
D19*
X134450000Y-125450000D02*
X134450000Y-128600000D01*
D18*
%TO.N,GND*%
X138450000Y-126200000D02*
X138275000Y-126025000D01*
X140850000Y-126200000D02*
X141075000Y-125975000D01*
X135250000Y-128600000D02*
X135250000Y-126000000D01*
X123250000Y-128600000D02*
X123250000Y-126000000D01*
X140850000Y-128600000D02*
X140850000Y-126200000D01*
X144850000Y-128600000D02*
X144850000Y-126000000D01*
X132050000Y-126975000D02*
X131000000Y-125925000D01*
X132050000Y-128600000D02*
X132050000Y-126975000D01*
X138450000Y-128600000D02*
X138450000Y-126200000D01*
D20*
%TO.N,+1V8*%
X129950000Y-118100000D02*
X129950000Y-114800000D01*
X128900000Y-106400000D02*
X128951000Y-106349000D01*
X127400000Y-112250000D02*
X127400000Y-107900000D01*
X127400000Y-107900000D02*
X128900000Y-106400000D01*
X131650000Y-119800000D02*
X129950000Y-118100000D01*
X131549000Y-106349000D02*
X131950000Y-106750000D01*
X129950000Y-114800000D02*
X127400000Y-112250000D01*
X128951000Y-106349000D02*
X131549000Y-106349000D01*
D21*
%TO.N,/TXD_1V8*%
X135350000Y-108850000D02*
X135350000Y-107250000D01*
D22*
%TO.N,/D_P*%
X139973501Y-125826499D02*
X140200000Y-125600000D01*
X139973501Y-128523501D02*
X139973501Y-125826499D01*
X140050000Y-128600000D02*
X139973501Y-128523501D01*
D21*
%TO.N,/RXD_1V8*%
X137850000Y-108850000D02*
X137850000Y-107250000D01*
%TO.N,/W_DISABLE*%
X129350000Y-108850000D02*
X129350000Y-107200000D01*
X132050000Y-125650000D02*
X132850000Y-126450000D01*
X132850000Y-126450000D02*
X132850000Y-128600000D01*
D22*
%TO.N,/D_N*%
X139326499Y-125826499D02*
X139100000Y-125600000D01*
X139326499Y-128523501D02*
X139326499Y-125826499D01*
D21*
%TO.N,/SDA_3V3*%
X137700000Y-122650000D02*
X138250000Y-122100000D01*
X137699943Y-122650000D02*
X137700000Y-122650000D01*
X137650000Y-125250000D02*
X137650000Y-128600000D01*
X134950000Y-122650000D02*
X137250000Y-122650000D01*
X137250000Y-122650000D02*
X137699943Y-122650000D01*
X129000000Y-101500000D02*
X127850000Y-102650000D01*
X134650000Y-122950000D02*
X134950000Y-122650000D01*
X139300000Y-119050000D02*
X139300000Y-116400000D01*
X136150000Y-102750000D02*
X136150000Y-109750000D01*
%TO.N,/SCL_3V3*%
X136950000Y-109750000D02*
X136950000Y-102750000D01*
X137100000Y-109750000D02*
X136950000Y-109750000D01*
X140350000Y-119050000D02*
X140350000Y-116400000D01*
X128000000Y-100500000D02*
X127000000Y-101500000D01*
X136850000Y-125550000D02*
X136850000Y-128600000D01*
X136849997Y-125549997D02*
X136850000Y-125550000D01*
%TD*%
%TA.AperFunction,Conductor*%
%TO.N,GND*%
G36*
X137304197Y-68127972D02*
G01*
X137441227Y-68143412D01*
X137457640Y-68147158D01*
X137514690Y-68167121D01*
X137583787Y-68191299D01*
X137598959Y-68198605D01*
X137712126Y-68269712D01*
X137725291Y-68280212D01*
X137819787Y-68374708D01*
X137830287Y-68387873D01*
X137901394Y-68501040D01*
X137908700Y-68516212D01*
X137952840Y-68642357D01*
X137956587Y-68658774D01*
X137972027Y-68795802D01*
X137972500Y-68804222D01*
X137972500Y-78331150D01*
X137984578Y-78399645D01*
X138000682Y-78490972D01*
X138000684Y-78490977D01*
X138056189Y-78643479D01*
X138113224Y-78742266D01*
X138132575Y-78775782D01*
X138137332Y-78784020D01*
X138137334Y-78784024D01*
X138241652Y-78908347D01*
X138292106Y-78950682D01*
X138365976Y-79012666D01*
X138464766Y-79069702D01*
X138506520Y-79093810D01*
X138506521Y-79093810D01*
X138506524Y-79093812D01*
X138659028Y-79149318D01*
X138818849Y-79177499D01*
X138818850Y-79177500D01*
X138818854Y-79177500D01*
X138874639Y-79177500D01*
X148020899Y-79177500D01*
X148045778Y-79177500D01*
X148054197Y-79177972D01*
X148191227Y-79193412D01*
X148207640Y-79197158D01*
X148264690Y-79217121D01*
X148333787Y-79241299D01*
X148348959Y-79248605D01*
X148462126Y-79319712D01*
X148475291Y-79330212D01*
X148569787Y-79424708D01*
X148580287Y-79437873D01*
X148651394Y-79551040D01*
X148658700Y-79566212D01*
X148702840Y-79692357D01*
X148706587Y-79708774D01*
X148722027Y-79845802D01*
X148722500Y-79854222D01*
X148722500Y-125924800D01*
X148704907Y-125973138D01*
X148660358Y-125998858D01*
X148647300Y-126000000D01*
X146225700Y-126000000D01*
X146207340Y-125993317D01*
X146188100Y-125989925D01*
X146183739Y-125984728D01*
X146177362Y-125982407D01*
X146167592Y-125965484D01*
X146155035Y-125950520D01*
X146153312Y-125940751D01*
X146151642Y-125937858D01*
X146150500Y-125924800D01*
X146150500Y-125862726D01*
X146168093Y-125814388D01*
X146172515Y-125809562D01*
X146271789Y-125710289D01*
X146359394Y-125579179D01*
X146419737Y-125433497D01*
X146450500Y-125278842D01*
X146450500Y-125121158D01*
X146446535Y-125101226D01*
X146424308Y-124989484D01*
X146419737Y-124966503D01*
X146359394Y-124820821D01*
X146271789Y-124689711D01*
X146271786Y-124689708D01*
X146271784Y-124689705D01*
X146160294Y-124578215D01*
X146160291Y-124578213D01*
X146160289Y-124578211D01*
X146029179Y-124490606D01*
X146029177Y-124490605D01*
X145883500Y-124430264D01*
X145883498Y-124430263D01*
X145728844Y-124399500D01*
X145728842Y-124399500D01*
X145571158Y-124399500D01*
X145571156Y-124399500D01*
X145416501Y-124430263D01*
X145416499Y-124430264D01*
X145270822Y-124490605D01*
X145139708Y-124578213D01*
X145139705Y-124578215D01*
X145028215Y-124689705D01*
X145028213Y-124689708D01*
X144940605Y-124820822D01*
X144880264Y-124966499D01*
X144880263Y-124966501D01*
X144849500Y-125121156D01*
X144849500Y-125278843D01*
X144880263Y-125433498D01*
X144880264Y-125433500D01*
X144918482Y-125525766D01*
X144940606Y-125579179D01*
X145028211Y-125710289D01*
X145127474Y-125809552D01*
X145134412Y-125824429D01*
X145144965Y-125837006D01*
X145147815Y-125853173D01*
X145149214Y-125856172D01*
X145149500Y-125862726D01*
X145149500Y-125924800D01*
X145131907Y-125973138D01*
X145087358Y-125998858D01*
X145074300Y-126000000D01*
X140763841Y-126000000D01*
X140715503Y-125982407D01*
X140689783Y-125937858D01*
X140698716Y-125887200D01*
X140736277Y-125822142D01*
X140736277Y-125822141D01*
X140736281Y-125822135D01*
X140775500Y-125675766D01*
X140775500Y-125524234D01*
X140736281Y-125377865D01*
X140736278Y-125377860D01*
X140736277Y-125377857D01*
X140660515Y-125246634D01*
X140553365Y-125139484D01*
X140422142Y-125063722D01*
X140422136Y-125063720D01*
X140422135Y-125063719D01*
X140275766Y-125024500D01*
X140124234Y-125024500D01*
X139988830Y-125060781D01*
X139977865Y-125063719D01*
X139977857Y-125063722D01*
X139846634Y-125139484D01*
X139739484Y-125246634D01*
X139715125Y-125288826D01*
X139675720Y-125321891D01*
X139624280Y-125321891D01*
X139584875Y-125288826D01*
X139560515Y-125246634D01*
X139453365Y-125139484D01*
X139322142Y-125063722D01*
X139322136Y-125063720D01*
X139322135Y-125063719D01*
X139175766Y-125024500D01*
X139024234Y-125024500D01*
X138888830Y-125060781D01*
X138877865Y-125063719D01*
X138877857Y-125063722D01*
X138746634Y-125139484D01*
X138639484Y-125246634D01*
X138563722Y-125377857D01*
X138563719Y-125377865D01*
X138524500Y-125524234D01*
X138524500Y-125675766D01*
X138563719Y-125822134D01*
X138563722Y-125822142D01*
X138601284Y-125887200D01*
X138610217Y-125937858D01*
X138584497Y-125982406D01*
X138536159Y-126000000D01*
X138025700Y-126000000D01*
X137977362Y-125982407D01*
X137951642Y-125937858D01*
X137950500Y-125924800D01*
X137950500Y-125688463D01*
X137968093Y-125640125D01*
X137972526Y-125635289D01*
X138050500Y-125557314D01*
X138116391Y-125443188D01*
X138118987Y-125433500D01*
X138150500Y-125315892D01*
X138150500Y-125184108D01*
X138116392Y-125056814D01*
X138116391Y-125056812D01*
X138116391Y-125056811D01*
X138050500Y-124942685D01*
X137957314Y-124849499D01*
X137843188Y-124783608D01*
X137792268Y-124769964D01*
X137715892Y-124749500D01*
X137584108Y-124749500D01*
X137520461Y-124766554D01*
X137456811Y-124783608D01*
X137342685Y-124849499D01*
X137249499Y-124942685D01*
X137183609Y-125056812D01*
X137181720Y-125061372D01*
X137180294Y-125060781D01*
X137154421Y-125097712D01*
X137104731Y-125111013D01*
X137073704Y-125101226D01*
X137043184Y-125083605D01*
X137011359Y-125075078D01*
X136915889Y-125049497D01*
X136784105Y-125049497D01*
X136720458Y-125066551D01*
X136656808Y-125083605D01*
X136542682Y-125149496D01*
X136449496Y-125242682D01*
X136383605Y-125356808D01*
X136364245Y-125429065D01*
X136349497Y-125484105D01*
X136349497Y-125615889D01*
X136358462Y-125649346D01*
X136383605Y-125743185D01*
X136449496Y-125857311D01*
X136463811Y-125871626D01*
X136485551Y-125918246D01*
X136472237Y-125967933D01*
X136430100Y-125997438D01*
X136410637Y-126000000D01*
X134925700Y-126000000D01*
X134907340Y-125993317D01*
X134888100Y-125989925D01*
X134883739Y-125984728D01*
X134877362Y-125982407D01*
X134867592Y-125965484D01*
X134855035Y-125950520D01*
X134853312Y-125940751D01*
X134851642Y-125937858D01*
X134850500Y-125924800D01*
X134850500Y-125894528D01*
X134868093Y-125846190D01*
X134872515Y-125841364D01*
X134910515Y-125803365D01*
X134986281Y-125672135D01*
X135025500Y-125525766D01*
X135025500Y-125374234D01*
X134986281Y-125227865D01*
X134986278Y-125227860D01*
X134986277Y-125227857D01*
X134910515Y-125096634D01*
X134803365Y-124989484D01*
X134672142Y-124913722D01*
X134672136Y-124913720D01*
X134672135Y-124913719D01*
X134525766Y-124874500D01*
X134374234Y-124874500D01*
X134227865Y-124913719D01*
X134227857Y-124913722D01*
X134096634Y-124989484D01*
X133989484Y-125096634D01*
X133913722Y-125227857D01*
X133913719Y-125227865D01*
X133874500Y-125374234D01*
X133874500Y-125525766D01*
X133905142Y-125640125D01*
X133913719Y-125672134D01*
X133913722Y-125672142D01*
X133989483Y-125803363D01*
X133989484Y-125803364D01*
X133989485Y-125803365D01*
X134027474Y-125841354D01*
X134034412Y-125856232D01*
X134044965Y-125868808D01*
X134047815Y-125884973D01*
X134049214Y-125887973D01*
X134049500Y-125894528D01*
X134049500Y-125924800D01*
X134031907Y-125973138D01*
X133987358Y-125998858D01*
X133974300Y-126000000D01*
X132856119Y-126000000D01*
X132807781Y-125982407D01*
X132802945Y-125977974D01*
X132572526Y-125747555D01*
X132550786Y-125700935D01*
X132550500Y-125694381D01*
X132550500Y-125584110D01*
X132550500Y-125584108D01*
X132516392Y-125456814D01*
X132516391Y-125456813D01*
X132516391Y-125456811D01*
X132450500Y-125342685D01*
X132357314Y-125249499D01*
X132243188Y-125183608D01*
X132192268Y-125169964D01*
X132115892Y-125149500D01*
X131984108Y-125149500D01*
X131920461Y-125166554D01*
X131856811Y-125183608D01*
X131742685Y-125249499D01*
X131649499Y-125342685D01*
X131583608Y-125456811D01*
X131563143Y-125533190D01*
X131549500Y-125584108D01*
X131549500Y-125715892D01*
X131557984Y-125747555D01*
X131583608Y-125843188D01*
X131609019Y-125887200D01*
X131617952Y-125937859D01*
X131592231Y-125982407D01*
X131543894Y-126000000D01*
X130479817Y-126000000D01*
X130438039Y-125987327D01*
X130415653Y-125972369D01*
X130255957Y-125906222D01*
X130255958Y-125906222D01*
X130086427Y-125872500D01*
X130086426Y-125872500D01*
X129913574Y-125872500D01*
X129913573Y-125872500D01*
X129744041Y-125906222D01*
X129584346Y-125972369D01*
X129561961Y-125987327D01*
X129520183Y-126000000D01*
X123025700Y-126000000D01*
X122977362Y-125982407D01*
X122951642Y-125937858D01*
X122950500Y-125924800D01*
X122950500Y-125734109D01*
X122934867Y-125675765D01*
X122925317Y-125640125D01*
X122916392Y-125606814D01*
X122910230Y-125596141D01*
X122896595Y-125572525D01*
X122850500Y-125492685D01*
X122754699Y-125396884D01*
X122754676Y-125396863D01*
X122222526Y-124864712D01*
X122200786Y-124818092D01*
X122200500Y-124811538D01*
X122200500Y-124671156D01*
X122182012Y-124578213D01*
X122169737Y-124516503D01*
X122109394Y-124370821D01*
X122021789Y-124239711D01*
X122021786Y-124239708D01*
X122021784Y-124239705D01*
X121910294Y-124128215D01*
X121910291Y-124128213D01*
X121910289Y-124128211D01*
X121779179Y-124040606D01*
X121779177Y-124040605D01*
X121633500Y-123980264D01*
X121633498Y-123980263D01*
X121478844Y-123949500D01*
X121478842Y-123949500D01*
X121321158Y-123949500D01*
X121321156Y-123949500D01*
X121166501Y-123980263D01*
X121166499Y-123980264D01*
X121020822Y-124040605D01*
X120889708Y-124128213D01*
X120889705Y-124128215D01*
X120778215Y-124239705D01*
X120778213Y-124239708D01*
X120690605Y-124370822D01*
X120630264Y-124516499D01*
X120630263Y-124516501D01*
X120599500Y-124671156D01*
X120599500Y-124828843D01*
X120630263Y-124983498D01*
X120630264Y-124983500D01*
X120690605Y-125129177D01*
X120690606Y-125129179D01*
X120778211Y-125260289D01*
X120778213Y-125260291D01*
X120778215Y-125260294D01*
X120889705Y-125371784D01*
X120889708Y-125371786D01*
X120889711Y-125371789D01*
X121020821Y-125459394D01*
X121166503Y-125519737D01*
X121259630Y-125538261D01*
X121321156Y-125550500D01*
X121461538Y-125550500D01*
X121509876Y-125568093D01*
X121514700Y-125572514D01*
X121813813Y-125871626D01*
X121835553Y-125918246D01*
X121822239Y-125967933D01*
X121780102Y-125997438D01*
X121760639Y-126000000D01*
X119052700Y-126000000D01*
X119004362Y-125982407D01*
X118978642Y-125937858D01*
X118977500Y-125924800D01*
X118977500Y-122884108D01*
X134149500Y-122884108D01*
X134149500Y-123015892D01*
X134169964Y-123092268D01*
X134183608Y-123143188D01*
X134249499Y-123257314D01*
X134342685Y-123350500D01*
X134456811Y-123416391D01*
X134456813Y-123416391D01*
X134456814Y-123416392D01*
X134584108Y-123450500D01*
X134584111Y-123450500D01*
X134715889Y-123450500D01*
X134715892Y-123450500D01*
X134843186Y-123416392D01*
X134957314Y-123350500D01*
X135050500Y-123257314D01*
X135116392Y-123143186D01*
X135150500Y-123015892D01*
X135150500Y-123015889D01*
X135151775Y-123011131D01*
X135152829Y-123011413D01*
X135174249Y-122970260D01*
X135221772Y-122950572D01*
X135225057Y-122950500D01*
X137739560Y-122950500D01*
X137739562Y-122950500D01*
X137815989Y-122930021D01*
X137884511Y-122890460D01*
X137940460Y-122834511D01*
X138152445Y-122622526D01*
X138199065Y-122600786D01*
X138205619Y-122600500D01*
X138315889Y-122600500D01*
X138315892Y-122600500D01*
X138443186Y-122566392D01*
X138472446Y-122549499D01*
X138557314Y-122500500D01*
X138650500Y-122407314D01*
X138716391Y-122293188D01*
X138716392Y-122293186D01*
X138750500Y-122165892D01*
X138750500Y-122034108D01*
X138716392Y-121906814D01*
X138716391Y-121906813D01*
X138716391Y-121906811D01*
X138650500Y-121792685D01*
X138557314Y-121699499D01*
X138443188Y-121633608D01*
X138392268Y-121619964D01*
X138315892Y-121599500D01*
X138184108Y-121599500D01*
X138120461Y-121616554D01*
X138056811Y-121633608D01*
X137942685Y-121699499D01*
X137849499Y-121792685D01*
X137783608Y-121906811D01*
X137763143Y-121983190D01*
X137749500Y-122034108D01*
X137749500Y-122034110D01*
X137749500Y-122144379D01*
X137731907Y-122192717D01*
X137727475Y-122197553D01*
X137597555Y-122327474D01*
X137550934Y-122349214D01*
X137544380Y-122349500D01*
X137289562Y-122349500D01*
X134910438Y-122349500D01*
X134834011Y-122369979D01*
X134834009Y-122369979D01*
X134818749Y-122378790D01*
X134818744Y-122378793D01*
X134815842Y-122380469D01*
X134765489Y-122409540D01*
X134742950Y-122432077D01*
X134737629Y-122435819D01*
X134718700Y-122440928D01*
X134700934Y-122449214D01*
X134694380Y-122449500D01*
X134584108Y-122449500D01*
X134520461Y-122466554D01*
X134456811Y-122483608D01*
X134342685Y-122549499D01*
X134249499Y-122642685D01*
X134183608Y-122756811D01*
X134163143Y-122833190D01*
X134149500Y-122884108D01*
X118977500Y-122884108D01*
X118977500Y-112406186D01*
X122897500Y-112406186D01*
X122897500Y-112593813D01*
X122934104Y-112777836D01*
X122934105Y-112777837D01*
X123005905Y-112951178D01*
X123110145Y-113107184D01*
X123110147Y-113107186D01*
X123110149Y-113107189D01*
X123242810Y-113239850D01*
X123242813Y-113239852D01*
X123242816Y-113239855D01*
X123398822Y-113344095D01*
X123572162Y-113415894D01*
X123572163Y-113415895D01*
X123572164Y-113415895D01*
X123572166Y-113415896D01*
X123695399Y-113440408D01*
X123756186Y-113452500D01*
X123756187Y-113452500D01*
X123943814Y-113452500D01*
X123989507Y-113443410D01*
X124127834Y-113415896D01*
X124301178Y-113344095D01*
X124457184Y-113239855D01*
X124589855Y-113107184D01*
X124694095Y-112951178D01*
X124765896Y-112777834D01*
X124802500Y-112593813D01*
X124802500Y-112406187D01*
X124765896Y-112222166D01*
X124694095Y-112048822D01*
X124589855Y-111892816D01*
X124589852Y-111892813D01*
X124589850Y-111892810D01*
X124457189Y-111760149D01*
X124457186Y-111760147D01*
X124457184Y-111760145D01*
X124301178Y-111655905D01*
X124301176Y-111655904D01*
X124127837Y-111584105D01*
X124127836Y-111584104D01*
X123943814Y-111547500D01*
X123943813Y-111547500D01*
X123756187Y-111547500D01*
X123756186Y-111547500D01*
X123572163Y-111584104D01*
X123572162Y-111584105D01*
X123398823Y-111655904D01*
X123242813Y-111760147D01*
X123242810Y-111760149D01*
X123110149Y-111892810D01*
X123110147Y-111892813D01*
X123005904Y-112048823D01*
X122934105Y-112222162D01*
X122934104Y-112222163D01*
X122897500Y-112406186D01*
X118977500Y-112406186D01*
X118977500Y-106580251D01*
X120149500Y-106580251D01*
X120149500Y-108319748D01*
X120161132Y-108378229D01*
X120161133Y-108378231D01*
X120205448Y-108444552D01*
X120271769Y-108488867D01*
X120301010Y-108494683D01*
X120330251Y-108500500D01*
X120330252Y-108500500D01*
X122069749Y-108500500D01*
X122089242Y-108496622D01*
X122128231Y-108488867D01*
X122194552Y-108444552D01*
X122238867Y-108378231D01*
X122250500Y-108319748D01*
X122250500Y-107853856D01*
X127049500Y-107853856D01*
X127049500Y-112296144D01*
X127067414Y-112363002D01*
X127073386Y-112385289D01*
X127119529Y-112465210D01*
X127119533Y-112465216D01*
X129577474Y-114923156D01*
X129599214Y-114969776D01*
X129599500Y-114976330D01*
X129599500Y-118146144D01*
X129617414Y-118213002D01*
X129623386Y-118235289D01*
X129669529Y-118315210D01*
X129669533Y-118315216D01*
X131127474Y-119773156D01*
X131149214Y-119819776D01*
X131149500Y-119826330D01*
X131149500Y-119865892D01*
X131169964Y-119942268D01*
X131183608Y-119993188D01*
X131249499Y-120107314D01*
X131342685Y-120200500D01*
X131456811Y-120266391D01*
X131456813Y-120266391D01*
X131456814Y-120266392D01*
X131584108Y-120300500D01*
X131584111Y-120300500D01*
X131715889Y-120300500D01*
X131715892Y-120300500D01*
X131843186Y-120266392D01*
X131957314Y-120200500D01*
X132050500Y-120107314D01*
X132116392Y-119993186D01*
X132150500Y-119865892D01*
X132150500Y-119734108D01*
X132116392Y-119606814D01*
X132116391Y-119606813D01*
X132116391Y-119606811D01*
X132050500Y-119492685D01*
X131957314Y-119399499D01*
X131843188Y-119333608D01*
X131792268Y-119319964D01*
X131715892Y-119299500D01*
X131715889Y-119299500D01*
X131676330Y-119299500D01*
X131627992Y-119281907D01*
X131623156Y-119277474D01*
X130322526Y-117976844D01*
X130300786Y-117930224D01*
X130300500Y-117923670D01*
X130300500Y-116334108D01*
X138799500Y-116334108D01*
X138799500Y-116465892D01*
X138819964Y-116542268D01*
X138833608Y-116593188D01*
X138899499Y-116707314D01*
X138977474Y-116785289D01*
X138999214Y-116831909D01*
X138999500Y-116838463D01*
X138999500Y-118611537D01*
X138981907Y-118659875D01*
X138977474Y-118664711D01*
X138899499Y-118742685D01*
X138833608Y-118856811D01*
X138827773Y-118878590D01*
X138799500Y-118984108D01*
X138799500Y-119115892D01*
X138819964Y-119192268D01*
X138833608Y-119243188D01*
X138899499Y-119357314D01*
X138992685Y-119450500D01*
X139106811Y-119516391D01*
X139106813Y-119516391D01*
X139106814Y-119516392D01*
X139234108Y-119550500D01*
X139234111Y-119550500D01*
X139365889Y-119550500D01*
X139365892Y-119550500D01*
X139493186Y-119516392D01*
X139607314Y-119450500D01*
X139700500Y-119357314D01*
X139759875Y-119254474D01*
X139799280Y-119221409D01*
X139850720Y-119221409D01*
X139890125Y-119254474D01*
X139949499Y-119357314D01*
X140042685Y-119450500D01*
X140156811Y-119516391D01*
X140156813Y-119516391D01*
X140156814Y-119516392D01*
X140284108Y-119550500D01*
X140284111Y-119550500D01*
X140415889Y-119550500D01*
X140415892Y-119550500D01*
X140543186Y-119516392D01*
X140657314Y-119450500D01*
X140750500Y-119357314D01*
X140816392Y-119243186D01*
X140850500Y-119115892D01*
X140850500Y-118984108D01*
X140816392Y-118856814D01*
X140816391Y-118856813D01*
X140816391Y-118856811D01*
X140750500Y-118742685D01*
X140672526Y-118664711D01*
X140650786Y-118618091D01*
X140650500Y-118611537D01*
X140650500Y-116838463D01*
X140668093Y-116790125D01*
X140672526Y-116785289D01*
X140750500Y-116707314D01*
X140816391Y-116593188D01*
X140822227Y-116571409D01*
X140850500Y-116465892D01*
X140850500Y-116334108D01*
X140816392Y-116206814D01*
X140816391Y-116206813D01*
X140816391Y-116206811D01*
X140750500Y-116092685D01*
X140657314Y-115999499D01*
X140543188Y-115933608D01*
X140492268Y-115919964D01*
X140415892Y-115899500D01*
X140284108Y-115899500D01*
X140220461Y-115916554D01*
X140156811Y-115933608D01*
X140042685Y-115999499D01*
X139949499Y-116092685D01*
X139890125Y-116195525D01*
X139850720Y-116228590D01*
X139799280Y-116228590D01*
X139759875Y-116195525D01*
X139700500Y-116092685D01*
X139607314Y-115999499D01*
X139493188Y-115933608D01*
X139442268Y-115919964D01*
X139365892Y-115899500D01*
X139234108Y-115899500D01*
X139170461Y-115916554D01*
X139106811Y-115933608D01*
X138992685Y-115999499D01*
X138899499Y-116092685D01*
X138833608Y-116206811D01*
X138827773Y-116228590D01*
X138799500Y-116334108D01*
X130300500Y-116334108D01*
X130300500Y-114753858D01*
X130300500Y-114753856D01*
X130276614Y-114664712D01*
X130230470Y-114584788D01*
X130230468Y-114584786D01*
X130230466Y-114584783D01*
X128076491Y-112430808D01*
X143147500Y-112430808D01*
X143147500Y-112430810D01*
X143147500Y-112569190D01*
X143174497Y-112704912D01*
X143227453Y-112832758D01*
X143304333Y-112947818D01*
X143304334Y-112947819D01*
X143304337Y-112947823D01*
X143402176Y-113045662D01*
X143402179Y-113045664D01*
X143402182Y-113045667D01*
X143517242Y-113122547D01*
X143645088Y-113175503D01*
X143726521Y-113191701D01*
X143780808Y-113202500D01*
X143780810Y-113202500D01*
X143919192Y-113202500D01*
X143964430Y-113193501D01*
X144054912Y-113175503D01*
X144182758Y-113122547D01*
X144297818Y-113045667D01*
X144395667Y-112947818D01*
X144472547Y-112832758D01*
X144525503Y-112704912D01*
X144552500Y-112569190D01*
X144552500Y-112430810D01*
X144525503Y-112295088D01*
X144472547Y-112167242D01*
X144395667Y-112052182D01*
X144395664Y-112052179D01*
X144395662Y-112052176D01*
X144297823Y-111954337D01*
X144297819Y-111954334D01*
X144297818Y-111954333D01*
X144182758Y-111877453D01*
X144054912Y-111824497D01*
X144054909Y-111824496D01*
X144054908Y-111824496D01*
X143919192Y-111797500D01*
X143919190Y-111797500D01*
X143780810Y-111797500D01*
X143780808Y-111797500D01*
X143645091Y-111824496D01*
X143645088Y-111824497D01*
X143517243Y-111877452D01*
X143402176Y-111954337D01*
X143304337Y-112052176D01*
X143227452Y-112167243D01*
X143174497Y-112295088D01*
X143174496Y-112295091D01*
X143147500Y-112430808D01*
X128076491Y-112430808D01*
X127772526Y-112126843D01*
X127750786Y-112080223D01*
X127750500Y-112073669D01*
X127750500Y-108076329D01*
X127768093Y-108027991D01*
X127772526Y-108023155D01*
X128238367Y-107557314D01*
X128721346Y-107074334D01*
X128767965Y-107052595D01*
X128817652Y-107065909D01*
X128847157Y-107108046D01*
X128848548Y-107129179D01*
X128849500Y-107129179D01*
X128849500Y-107134108D01*
X128849500Y-107265892D01*
X128869964Y-107342268D01*
X128883608Y-107393188D01*
X128949499Y-107507314D01*
X129027474Y-107585289D01*
X129049214Y-107631909D01*
X129049500Y-107638463D01*
X129049500Y-108411537D01*
X129031907Y-108459875D01*
X129027474Y-108464711D01*
X128949499Y-108542685D01*
X128883608Y-108656811D01*
X128863143Y-108733190D01*
X128849500Y-108784108D01*
X128849500Y-108915892D01*
X128869964Y-108992268D01*
X128883608Y-109043188D01*
X128949499Y-109157314D01*
X129042685Y-109250500D01*
X129156811Y-109316391D01*
X129156813Y-109316391D01*
X129156814Y-109316392D01*
X129284108Y-109350500D01*
X129284111Y-109350500D01*
X129415889Y-109350500D01*
X129415892Y-109350500D01*
X129543186Y-109316392D01*
X129657314Y-109250500D01*
X129750500Y-109157314D01*
X129816392Y-109043186D01*
X129850500Y-108915892D01*
X129850500Y-108784108D01*
X129816392Y-108656814D01*
X129816391Y-108656813D01*
X129816391Y-108656811D01*
X129750500Y-108542685D01*
X129672526Y-108464711D01*
X129650786Y-108418091D01*
X129650500Y-108411537D01*
X129650500Y-107638463D01*
X129668093Y-107590125D01*
X129672526Y-107585289D01*
X129750500Y-107507314D01*
X129816391Y-107393188D01*
X129816392Y-107393186D01*
X129850500Y-107265892D01*
X129850500Y-107134108D01*
X129816392Y-107006814D01*
X129816391Y-107006813D01*
X129816391Y-107006811D01*
X129750500Y-106892685D01*
X129685689Y-106827874D01*
X129663949Y-106781254D01*
X129677263Y-106731567D01*
X129719400Y-106702062D01*
X129738863Y-106699500D01*
X131372670Y-106699500D01*
X131388097Y-106705115D01*
X131404451Y-106706546D01*
X131417895Y-106715960D01*
X131421008Y-106717093D01*
X131425844Y-106721526D01*
X131427474Y-106723156D01*
X131449214Y-106769776D01*
X131449500Y-106776330D01*
X131449500Y-106815892D01*
X131469964Y-106892268D01*
X131483608Y-106943188D01*
X131549499Y-107057314D01*
X131642685Y-107150500D01*
X131756811Y-107216391D01*
X131756813Y-107216391D01*
X131756814Y-107216392D01*
X131884108Y-107250500D01*
X131884111Y-107250500D01*
X132015889Y-107250500D01*
X132015892Y-107250500D01*
X132143186Y-107216392D01*
X132199104Y-107184108D01*
X134849500Y-107184108D01*
X134849500Y-107315892D01*
X134869964Y-107392268D01*
X134883608Y-107443188D01*
X134949499Y-107557314D01*
X135027474Y-107635289D01*
X135049214Y-107681909D01*
X135049500Y-107688463D01*
X135049500Y-108411537D01*
X135031907Y-108459875D01*
X135027474Y-108464711D01*
X134949499Y-108542685D01*
X134883608Y-108656811D01*
X134863143Y-108733190D01*
X134849500Y-108784108D01*
X134849500Y-108915892D01*
X134869964Y-108992268D01*
X134883608Y-109043188D01*
X134949499Y-109157314D01*
X135042685Y-109250500D01*
X135156811Y-109316391D01*
X135156813Y-109316391D01*
X135156814Y-109316392D01*
X135284108Y-109350500D01*
X135284111Y-109350500D01*
X135415889Y-109350500D01*
X135415892Y-109350500D01*
X135543186Y-109316392D01*
X135657314Y-109250500D01*
X135689075Y-109218739D01*
X135721126Y-109186689D01*
X135741632Y-109177126D01*
X135761242Y-109165805D01*
X135764629Y-109166402D01*
X135767746Y-109164949D01*
X135789607Y-109170806D01*
X135811900Y-109174738D01*
X135814110Y-109177372D01*
X135817433Y-109178263D01*
X135830415Y-109196803D01*
X135844965Y-109214143D01*
X135845775Y-109218739D01*
X135846938Y-109220400D01*
X135849500Y-109239863D01*
X135849500Y-109311537D01*
X135831907Y-109359875D01*
X135827474Y-109364711D01*
X135749499Y-109442685D01*
X135683608Y-109556811D01*
X135663143Y-109633190D01*
X135649500Y-109684108D01*
X135649500Y-109815892D01*
X135669964Y-109892268D01*
X135683608Y-109943188D01*
X135749499Y-110057314D01*
X135842685Y-110150500D01*
X135956811Y-110216391D01*
X135956813Y-110216391D01*
X135956814Y-110216392D01*
X136084108Y-110250500D01*
X136084111Y-110250500D01*
X136215889Y-110250500D01*
X136215892Y-110250500D01*
X136343186Y-110216392D01*
X136457314Y-110150500D01*
X136496826Y-110110987D01*
X136543445Y-110089248D01*
X136593132Y-110102561D01*
X136603168Y-110110982D01*
X136642686Y-110150500D01*
X136642687Y-110150501D01*
X136756811Y-110216391D01*
X136756813Y-110216391D01*
X136756814Y-110216392D01*
X136884108Y-110250500D01*
X136884111Y-110250500D01*
X137015889Y-110250500D01*
X137015892Y-110250500D01*
X137143186Y-110216392D01*
X137257314Y-110150500D01*
X137350500Y-110057314D01*
X137416392Y-109943186D01*
X137450500Y-109815892D01*
X137450500Y-109684108D01*
X137416392Y-109556814D01*
X137416391Y-109556813D01*
X137416391Y-109556811D01*
X137350500Y-109442685D01*
X137272526Y-109364711D01*
X137250786Y-109318091D01*
X137250500Y-109311537D01*
X137250500Y-109093286D01*
X137268093Y-109044948D01*
X137312642Y-109019228D01*
X137363300Y-109028161D01*
X137390825Y-109055686D01*
X137449499Y-109157314D01*
X137542685Y-109250500D01*
X137656811Y-109316391D01*
X137656813Y-109316391D01*
X137656814Y-109316392D01*
X137784108Y-109350500D01*
X137784111Y-109350500D01*
X137915889Y-109350500D01*
X137915892Y-109350500D01*
X138043186Y-109316392D01*
X138157314Y-109250500D01*
X138250500Y-109157314D01*
X138316392Y-109043186D01*
X138350500Y-108915892D01*
X138350500Y-108784108D01*
X138316392Y-108656814D01*
X138316391Y-108656813D01*
X138316391Y-108656811D01*
X138250500Y-108542685D01*
X138172526Y-108464711D01*
X138150786Y-108418091D01*
X138150500Y-108411537D01*
X138150500Y-107688463D01*
X138168093Y-107640125D01*
X138172526Y-107635289D01*
X138250500Y-107557314D01*
X138316391Y-107443188D01*
X138316392Y-107443186D01*
X138350500Y-107315892D01*
X138350500Y-107184108D01*
X138316392Y-107056814D01*
X138316391Y-107056813D01*
X138316391Y-107056811D01*
X138250500Y-106942685D01*
X138157314Y-106849499D01*
X138043188Y-106783608D01*
X137991564Y-106769776D01*
X137915892Y-106749500D01*
X137784108Y-106749500D01*
X137720461Y-106766554D01*
X137656811Y-106783608D01*
X137542685Y-106849499D01*
X137449499Y-106942685D01*
X137390825Y-107044313D01*
X137351420Y-107077378D01*
X137299980Y-107077378D01*
X137260575Y-107044313D01*
X137250500Y-107006713D01*
X137250500Y-103188463D01*
X137268093Y-103140125D01*
X137272526Y-103135289D01*
X137350500Y-103057314D01*
X137416391Y-102943188D01*
X137416392Y-102943186D01*
X137450500Y-102815892D01*
X137450500Y-102684108D01*
X137416392Y-102556814D01*
X137416391Y-102556813D01*
X137416391Y-102556811D01*
X137350500Y-102442685D01*
X137257314Y-102349499D01*
X137143188Y-102283608D01*
X137079464Y-102266534D01*
X137015892Y-102249500D01*
X136884108Y-102249500D01*
X136820536Y-102266534D01*
X136756811Y-102283608D01*
X136642685Y-102349499D01*
X136603174Y-102389011D01*
X136556554Y-102410751D01*
X136506867Y-102397437D01*
X136496826Y-102389011D01*
X136457314Y-102349499D01*
X136343188Y-102283608D01*
X136279464Y-102266534D01*
X136215892Y-102249500D01*
X136084108Y-102249500D01*
X136020536Y-102266534D01*
X135956811Y-102283608D01*
X135842685Y-102349499D01*
X135749499Y-102442685D01*
X135683608Y-102556811D01*
X135676294Y-102584110D01*
X135649500Y-102684108D01*
X135649500Y-102815892D01*
X135669964Y-102892268D01*
X135683608Y-102943188D01*
X135749499Y-103057314D01*
X135827474Y-103135289D01*
X135849214Y-103181909D01*
X135849500Y-103188463D01*
X135849500Y-106860137D01*
X135831907Y-106908475D01*
X135787358Y-106934195D01*
X135736700Y-106925262D01*
X135721126Y-106913311D01*
X135657314Y-106849499D01*
X135543188Y-106783608D01*
X135491564Y-106769776D01*
X135415892Y-106749500D01*
X135284108Y-106749500D01*
X135220461Y-106766554D01*
X135156811Y-106783608D01*
X135042685Y-106849499D01*
X134949499Y-106942685D01*
X134883608Y-107056811D01*
X134864218Y-107129179D01*
X134849500Y-107184108D01*
X132199104Y-107184108D01*
X132257314Y-107150500D01*
X132281810Y-107126005D01*
X132350500Y-107057314D01*
X132416391Y-106943188D01*
X132418801Y-106934195D01*
X132450500Y-106815892D01*
X132450500Y-106684108D01*
X132416392Y-106556814D01*
X132416391Y-106556813D01*
X132416391Y-106556811D01*
X132350500Y-106442685D01*
X132257314Y-106349499D01*
X132143188Y-106283608D01*
X132092268Y-106269964D01*
X132015892Y-106249500D01*
X132015889Y-106249500D01*
X131976330Y-106249500D01*
X131927992Y-106231907D01*
X131923166Y-106227484D01*
X131764212Y-106068530D01*
X131747320Y-106058777D01*
X131684289Y-106022386D01*
X131662002Y-106016414D01*
X131595144Y-105998500D01*
X128904856Y-105998500D01*
X128851369Y-106012831D01*
X128815710Y-106022386D01*
X128735789Y-106068529D01*
X128735787Y-106068530D01*
X128677659Y-106126659D01*
X128619530Y-106184788D01*
X128619528Y-106184790D01*
X127119529Y-107684787D01*
X127085800Y-107743208D01*
X127085798Y-107743211D01*
X127081591Y-107750500D01*
X127073386Y-107764712D01*
X127049500Y-107853856D01*
X122250500Y-107853856D01*
X122250500Y-106580252D01*
X122238867Y-106521769D01*
X122194552Y-106455448D01*
X122128231Y-106411133D01*
X122128229Y-106411132D01*
X122069749Y-106399500D01*
X122069748Y-106399500D01*
X120330252Y-106399500D01*
X120330251Y-106399500D01*
X120271770Y-106411132D01*
X120271768Y-106411133D01*
X120205448Y-106455448D01*
X120161133Y-106521768D01*
X120161132Y-106521770D01*
X120149500Y-106580251D01*
X118977500Y-106580251D01*
X118977500Y-104806535D01*
X120149500Y-104806535D01*
X120149500Y-105013465D01*
X120189870Y-105216420D01*
X120269059Y-105407598D01*
X120384023Y-105579655D01*
X120384024Y-105579656D01*
X120384027Y-105579660D01*
X120530339Y-105725972D01*
X120530342Y-105725974D01*
X120530345Y-105725977D01*
X120702402Y-105840941D01*
X120893580Y-105920130D01*
X121045796Y-105950407D01*
X121096534Y-105960500D01*
X121096535Y-105960500D01*
X121303466Y-105960500D01*
X121344056Y-105952426D01*
X121506420Y-105920130D01*
X121697598Y-105840941D01*
X121869655Y-105725977D01*
X122015977Y-105579655D01*
X122130941Y-105407598D01*
X122210130Y-105216420D01*
X122250500Y-105013465D01*
X122250500Y-104806535D01*
X122210130Y-104603580D01*
X122130941Y-104412402D01*
X122015977Y-104240345D01*
X122015974Y-104240342D01*
X122015972Y-104240339D01*
X121869660Y-104094027D01*
X121869656Y-104094024D01*
X121869655Y-104094023D01*
X121697598Y-103979059D01*
X121506420Y-103899870D01*
X121506417Y-103899869D01*
X121506416Y-103899869D01*
X121303466Y-103859500D01*
X121303465Y-103859500D01*
X121096535Y-103859500D01*
X121096534Y-103859500D01*
X120893583Y-103899869D01*
X120893580Y-103899870D01*
X120702403Y-103979058D01*
X120530339Y-104094027D01*
X120384027Y-104240339D01*
X120269058Y-104412403D01*
X120189870Y-104603580D01*
X120149500Y-104806535D01*
X118977500Y-104806535D01*
X118977500Y-102266534D01*
X120149500Y-102266534D01*
X120149500Y-102473465D01*
X120171508Y-102584110D01*
X120189870Y-102676420D01*
X120269059Y-102867598D01*
X120384023Y-103039655D01*
X120384024Y-103039656D01*
X120384027Y-103039660D01*
X120530339Y-103185972D01*
X120530342Y-103185974D01*
X120530345Y-103185977D01*
X120702402Y-103300941D01*
X120893580Y-103380130D01*
X121045796Y-103410407D01*
X121096534Y-103420500D01*
X121096535Y-103420500D01*
X121303466Y-103420500D01*
X121344056Y-103412426D01*
X121506420Y-103380130D01*
X121697598Y-103300941D01*
X121869655Y-103185977D01*
X122015977Y-103039655D01*
X122130941Y-102867598D01*
X122210130Y-102676420D01*
X122228492Y-102584108D01*
X127349500Y-102584108D01*
X127349500Y-102715892D01*
X127369964Y-102792268D01*
X127383608Y-102843188D01*
X127449499Y-102957314D01*
X127542685Y-103050500D01*
X127656811Y-103116391D01*
X127656813Y-103116391D01*
X127656814Y-103116392D01*
X127784108Y-103150500D01*
X127784111Y-103150500D01*
X127915889Y-103150500D01*
X127915892Y-103150500D01*
X128043186Y-103116392D01*
X128157314Y-103050500D01*
X128250500Y-102957314D01*
X128316392Y-102843186D01*
X128350500Y-102715892D01*
X128350500Y-102605618D01*
X128368093Y-102557280D01*
X128372526Y-102552444D01*
X128902444Y-102022526D01*
X128949064Y-102000786D01*
X128955618Y-102000500D01*
X129065889Y-102000500D01*
X129065892Y-102000500D01*
X129193186Y-101966392D01*
X129307314Y-101900500D01*
X129400500Y-101807314D01*
X129466392Y-101693186D01*
X129500500Y-101565892D01*
X129500500Y-101434108D01*
X129466392Y-101306814D01*
X129466391Y-101306813D01*
X129466391Y-101306811D01*
X129400500Y-101192685D01*
X129307314Y-101099499D01*
X129193188Y-101033608D01*
X129142268Y-101019964D01*
X129065892Y-100999500D01*
X128934108Y-100999500D01*
X128870461Y-101016554D01*
X128806811Y-101033608D01*
X128692685Y-101099499D01*
X128599499Y-101192685D01*
X128533608Y-101306811D01*
X128519392Y-101359869D01*
X128499500Y-101434108D01*
X128499500Y-101434110D01*
X128499500Y-101544380D01*
X128481907Y-101592718D01*
X128477474Y-101597554D01*
X127947554Y-102127474D01*
X127900934Y-102149214D01*
X127894380Y-102149500D01*
X127784108Y-102149500D01*
X127720461Y-102166554D01*
X127656811Y-102183608D01*
X127542685Y-102249499D01*
X127449499Y-102342685D01*
X127383608Y-102456811D01*
X127379146Y-102473465D01*
X127349500Y-102584108D01*
X122228492Y-102584108D01*
X122250500Y-102473465D01*
X122250500Y-102266535D01*
X122210130Y-102063580D01*
X122130941Y-101872402D01*
X122015977Y-101700345D01*
X122015974Y-101700342D01*
X122015972Y-101700339D01*
X121869660Y-101554027D01*
X121869656Y-101554024D01*
X121869655Y-101554023D01*
X121697598Y-101439059D01*
X121685645Y-101434108D01*
X126499500Y-101434108D01*
X126499500Y-101565892D01*
X126506688Y-101592718D01*
X126533608Y-101693188D01*
X126599499Y-101807314D01*
X126692685Y-101900500D01*
X126806811Y-101966391D01*
X126806813Y-101966391D01*
X126806814Y-101966392D01*
X126934108Y-102000500D01*
X126934111Y-102000500D01*
X127065889Y-102000500D01*
X127065892Y-102000500D01*
X127193186Y-101966392D01*
X127307314Y-101900500D01*
X127400500Y-101807314D01*
X127466392Y-101693186D01*
X127500500Y-101565892D01*
X127500500Y-101455618D01*
X127518093Y-101407280D01*
X127522526Y-101402444D01*
X127902444Y-101022526D01*
X127949064Y-101000786D01*
X127955618Y-101000500D01*
X128065889Y-101000500D01*
X128065892Y-101000500D01*
X128193186Y-100966392D01*
X128307314Y-100900500D01*
X128400500Y-100807314D01*
X128466392Y-100693186D01*
X128500500Y-100565892D01*
X128500500Y-100434108D01*
X128466392Y-100306814D01*
X128466391Y-100306813D01*
X128466391Y-100306811D01*
X128400500Y-100192685D01*
X128307314Y-100099499D01*
X128193188Y-100033608D01*
X128142268Y-100019964D01*
X128065892Y-99999500D01*
X127934108Y-99999500D01*
X127870461Y-100016554D01*
X127806811Y-100033608D01*
X127692685Y-100099499D01*
X127599499Y-100192685D01*
X127533608Y-100306811D01*
X127513143Y-100383190D01*
X127499500Y-100434108D01*
X127499500Y-100434110D01*
X127499500Y-100544380D01*
X127481907Y-100592718D01*
X127477474Y-100597554D01*
X127097554Y-100977474D01*
X127050934Y-100999214D01*
X127044380Y-100999500D01*
X126934108Y-100999500D01*
X126870461Y-101016554D01*
X126806811Y-101033608D01*
X126692685Y-101099499D01*
X126599499Y-101192685D01*
X126533608Y-101306811D01*
X126519392Y-101359869D01*
X126499500Y-101434108D01*
X121685645Y-101434108D01*
X121609202Y-101402444D01*
X121506420Y-101359870D01*
X121506417Y-101359869D01*
X121506416Y-101359869D01*
X121303466Y-101319500D01*
X121303465Y-101319500D01*
X121096535Y-101319500D01*
X121096534Y-101319500D01*
X120893583Y-101359869D01*
X120893580Y-101359870D01*
X120702403Y-101439058D01*
X120530339Y-101554027D01*
X120384027Y-101700339D01*
X120269058Y-101872403D01*
X120189870Y-102063580D01*
X120189869Y-102063583D01*
X120149500Y-102266534D01*
X118977500Y-102266534D01*
X118977500Y-99726534D01*
X120149500Y-99726534D01*
X120149500Y-99933465D01*
X120169419Y-100033608D01*
X120189870Y-100136420D01*
X120269059Y-100327598D01*
X120384023Y-100499655D01*
X120384024Y-100499656D01*
X120384027Y-100499660D01*
X120530339Y-100645972D01*
X120530342Y-100645974D01*
X120530345Y-100645977D01*
X120702402Y-100760941D01*
X120893580Y-100840130D01*
X121045796Y-100870407D01*
X121096534Y-100880500D01*
X121096535Y-100880500D01*
X121303466Y-100880500D01*
X121344056Y-100872426D01*
X121506420Y-100840130D01*
X121697598Y-100760941D01*
X121869655Y-100645977D01*
X122015977Y-100499655D01*
X122130941Y-100327598D01*
X122210130Y-100136420D01*
X122250500Y-99933465D01*
X122250500Y-99726535D01*
X122210130Y-99523580D01*
X122130941Y-99332402D01*
X122015977Y-99160345D01*
X122015974Y-99160342D01*
X122015972Y-99160339D01*
X121869660Y-99014027D01*
X121869656Y-99014024D01*
X121869655Y-99014023D01*
X121697598Y-98899059D01*
X121506420Y-98819870D01*
X121506417Y-98819869D01*
X121506416Y-98819869D01*
X121303466Y-98779500D01*
X121303465Y-98779500D01*
X121096535Y-98779500D01*
X121096534Y-98779500D01*
X120893583Y-98819869D01*
X120893580Y-98819870D01*
X120702403Y-98899058D01*
X120530339Y-99014027D01*
X120384027Y-99160339D01*
X120269058Y-99332403D01*
X120189870Y-99523580D01*
X120189869Y-99523583D01*
X120149500Y-99726534D01*
X118977500Y-99726534D01*
X118977500Y-97186535D01*
X120149500Y-97186535D01*
X120149500Y-97393465D01*
X120189870Y-97596420D01*
X120269059Y-97787598D01*
X120384023Y-97959655D01*
X120384024Y-97959656D01*
X120384027Y-97959660D01*
X120530339Y-98105972D01*
X120530342Y-98105974D01*
X120530345Y-98105977D01*
X120702402Y-98220941D01*
X120893580Y-98300130D01*
X121045796Y-98330407D01*
X121096534Y-98340500D01*
X121096535Y-98340500D01*
X121303466Y-98340500D01*
X121344056Y-98332426D01*
X121506420Y-98300130D01*
X121697598Y-98220941D01*
X121869655Y-98105977D01*
X122015977Y-97959655D01*
X122130941Y-97787598D01*
X122210130Y-97596420D01*
X122250500Y-97393465D01*
X122250500Y-97186535D01*
X122210130Y-96983580D01*
X122130941Y-96792402D01*
X122015977Y-96620345D01*
X122015974Y-96620342D01*
X122015972Y-96620339D01*
X121869660Y-96474027D01*
X121869656Y-96474024D01*
X121869655Y-96474023D01*
X121697598Y-96359059D01*
X121506420Y-96279870D01*
X121506417Y-96279869D01*
X121506416Y-96279869D01*
X121303466Y-96239500D01*
X121303465Y-96239500D01*
X121096535Y-96239500D01*
X121096534Y-96239500D01*
X120893583Y-96279869D01*
X120893580Y-96279870D01*
X120702403Y-96359058D01*
X120530339Y-96474027D01*
X120384027Y-96620339D01*
X120269058Y-96792403D01*
X120189870Y-96983580D01*
X120149500Y-97186535D01*
X118977500Y-97186535D01*
X118977500Y-94663425D01*
X120100000Y-94663425D01*
X120100000Y-94836574D01*
X120127084Y-95007576D01*
X120127087Y-95007588D01*
X120180586Y-95172242D01*
X120180594Y-95172261D01*
X120203145Y-95216521D01*
X120203146Y-95216522D01*
X120650000Y-94769668D01*
X120650000Y-94822409D01*
X120687482Y-94962292D01*
X120759890Y-95087708D01*
X120862292Y-95190110D01*
X120987708Y-95262518D01*
X121127591Y-95300000D01*
X121180329Y-95300000D01*
X120733476Y-95746852D01*
X120733477Y-95746853D01*
X120777745Y-95769409D01*
X120942411Y-95822912D01*
X120942423Y-95822915D01*
X121113425Y-95849999D01*
X121113432Y-95850000D01*
X121286568Y-95850000D01*
X121286574Y-95849999D01*
X121457576Y-95822915D01*
X121457588Y-95822912D01*
X121622254Y-95769409D01*
X121666522Y-95746853D01*
X121666522Y-95746852D01*
X121219671Y-95300000D01*
X121272409Y-95300000D01*
X121412292Y-95262518D01*
X121537708Y-95190110D01*
X121640110Y-95087708D01*
X121712518Y-94962292D01*
X121750000Y-94822409D01*
X121750000Y-94769670D01*
X122196852Y-95216522D01*
X122196853Y-95216522D01*
X122219409Y-95172254D01*
X122272912Y-95007588D01*
X122272915Y-95007576D01*
X122299999Y-94836574D01*
X122300000Y-94836567D01*
X122300000Y-94663432D01*
X122299999Y-94663425D01*
X122272915Y-94492423D01*
X122272912Y-94492411D01*
X122219409Y-94327745D01*
X122196853Y-94283477D01*
X122196852Y-94283476D01*
X121750000Y-94730328D01*
X121750000Y-94677591D01*
X121712518Y-94537708D01*
X121640110Y-94412292D01*
X121537708Y-94309890D01*
X121412292Y-94237482D01*
X121272409Y-94200000D01*
X121219670Y-94200000D01*
X121666522Y-93753146D01*
X121666521Y-93753145D01*
X121622261Y-93730594D01*
X121622242Y-93730586D01*
X121457588Y-93677087D01*
X121457576Y-93677084D01*
X121286574Y-93650000D01*
X121113425Y-93650000D01*
X120942423Y-93677084D01*
X120942422Y-93677084D01*
X120777747Y-93730589D01*
X120733476Y-93753145D01*
X121180330Y-94200000D01*
X121127591Y-94200000D01*
X120987708Y-94237482D01*
X120862292Y-94309890D01*
X120759890Y-94412292D01*
X120687482Y-94537708D01*
X120650000Y-94677591D01*
X120650000Y-94730330D01*
X120203145Y-94283476D01*
X120180589Y-94327747D01*
X120127084Y-94492422D01*
X120127084Y-94492423D01*
X120100000Y-94663425D01*
X118977500Y-94663425D01*
X118977500Y-79854222D01*
X118977973Y-79845802D01*
X118993412Y-79708770D01*
X118997157Y-79692361D01*
X119041299Y-79566211D01*
X119048605Y-79551040D01*
X119119715Y-79437868D01*
X119130208Y-79424712D01*
X119224712Y-79330208D01*
X119237868Y-79319715D01*
X119351040Y-79248604D01*
X119366212Y-79241299D01*
X119492361Y-79197157D01*
X119508770Y-79193412D01*
X119645802Y-79177972D01*
X119654222Y-79177500D01*
X128881150Y-79177500D01*
X128881150Y-79177499D01*
X129040972Y-79149318D01*
X129193476Y-79093812D01*
X129334024Y-79012666D01*
X129458347Y-78908347D01*
X129562666Y-78784024D01*
X129643812Y-78643476D01*
X129699318Y-78490972D01*
X129727499Y-78331150D01*
X129727500Y-78331150D01*
X129727500Y-68804222D01*
X129727973Y-68795802D01*
X129743412Y-68658770D01*
X129747157Y-68642361D01*
X129791299Y-68516211D01*
X129798605Y-68501040D01*
X129869715Y-68387868D01*
X129880208Y-68374712D01*
X129974712Y-68280208D01*
X129987868Y-68269715D01*
X130101040Y-68198604D01*
X130116212Y-68191299D01*
X130242361Y-68147157D01*
X130258770Y-68143412D01*
X130395802Y-68127972D01*
X130404222Y-68127500D01*
X130429101Y-68127500D01*
X137270899Y-68127500D01*
X137295778Y-68127500D01*
X137304197Y-68127972D01*
G37*
%TD.AperFunction*%
%TD*%
M02*
